<svg aria-hidden="true" style="position: absolute; width: 0; height: 0; overflow: hidden;" version="1.1" xmlns="http://www.w3.org/2000/svg" xmlns:xlink="http://www.w3.org/1999/xlink"><defs><symbol id="icon-back" viewBox="0 0 32 32"><path fill="#be9df6" style="fill: var(--color1, #be9df6)" d="M9.228 16.667l7.252 7.252c0.13 0.13 0.198 0.283 0.204 0.459s-0.066 0.337-0.213 0.484c-0.146 0.142-0.303 0.215-0.471 0.217s-0.324-0.071-0.472-0.217l-8.107-8.107c-0.116-0.117-0.198-0.236-0.245-0.357s-0.071-0.253-0.071-0.397 0.024-0.276 0.071-0.397c0.047-0.121 0.129-0.24 0.245-0.356l8.107-8.108c0.124-0.124 0.276-0.191 0.455-0.2s0.343 0.058 0.489 0.2c0.147 0.147 0.22 0.305 0.22 0.475s-0.073 0.329-0.22 0.476l-7.245 7.244h15.44c0.19 0 0.349 0.064 0.476 0.191s0.191 0.286 0.191 0.476c0 0.19-0.064 0.349-0.191 0.476s-0.286 0.191-0.476 0.191h-15.439z"/></symbol><symbol id="icon-download" viewBox="0 0 32 32"><path fill="#be9df6" style="fill: var(--color1, #be9df6)" d="M17.333 14.867v-9.533c0-0.354-0.14-0.693-0.39-0.943s-0.589-0.391-0.943-0.391-0.693 0.14-0.943 0.391c-0.25 0.25-0.391 0.589-0.391 0.943v9.533l-2.96-3.701c-0.107-0.143-0.242-0.263-0.397-0.352s-0.325-0.147-0.502-0.17c-0.177-0.022-0.357-0.009-0.529 0.040s-0.332 0.131-0.472 0.243c-0.139 0.112-0.255 0.25-0.34 0.407s-0.137 0.33-0.154 0.508c-0.017 0.178 0.002 0.357 0.056 0.527s0.141 0.328 0.257 0.464l5.333 6.667c0.125 0.156 0.283 0.281 0.463 0.368s0.377 0.131 0.577 0.131c0.2 0 0.397-0.045 0.577-0.131s0.338-0.212 0.463-0.368l5.333-6.667c0.116-0.136 0.203-0.294 0.257-0.464s0.073-0.35 0.056-0.527c-0.017-0.178-0.069-0.35-0.154-0.508s-0.2-0.296-0.34-0.407c-0.139-0.112-0.3-0.194-0.472-0.243s-0.352-0.062-0.529-0.040c-0.177 0.022-0.348 0.080-0.503 0.17s-0.289 0.209-0.397 0.352l-2.96 3.701z"/><path fill="#be9df6" style="fill: var(--color1, #be9df6)" d="M12.876 21.166c0.375 0.468 0.85 0.846 1.391 1.106s1.133 0.395 1.733 0.395c0.6 0 1.192-0.135 1.733-0.395s1.016-0.638 1.391-1.106l3.067-3.832h3.144c0.707 0 1.386 0.281 1.886 0.781s0.781 1.178 0.781 1.886v5.333c0 0.707-0.281 1.386-0.781 1.886s-1.178 0.781-1.886 0.781h-18.667c-0.707 0-1.386-0.281-1.886-0.781s-0.781-1.178-0.781-1.886v-5.333c0-0.707 0.281-1.386 0.781-1.886s1.178-0.781 1.886-0.781h3.144l3.065 3.832zM22.667 21.334c-0.354 0-0.693 0.14-0.943 0.39s-0.391 0.589-0.391 0.943c0 0.354 0.14 0.693 0.391 0.943s0.589 0.391 0.943 0.391h0.013c0.354 0 0.693-0.14 0.943-0.391s0.39-0.589 0.39-0.943c0-0.354-0.14-0.693-0.39-0.943s-0.589-0.39-0.943-0.39h-0.013z"/></symbol><symbol id="icon-businessman" viewBox="0 0 32 32"><path fill="#be9df6" style="fill: var(--color1, #be9df6)" d="M25.693 25.587c-0.088 0-0.173 0.035-0.236 0.098s-0.098 0.147-0.098 0.236v1c0 0.265-0.105 0.52-0.293 0.707s-0.442 0.293-0.707 0.293-0.52-0.105-0.707-0.293c-0.188-0.188-0.293-0.442-0.293-0.707v-1c0-0.088-0.035-0.173-0.098-0.236s-0.147-0.098-0.236-0.098h-5.693c-0.088 0-0.173 0.035-0.236 0.098s-0.098 0.147-0.098 0.236v3c0.003 0.529 0.215 1.036 0.59 1.41s0.881 0.586 1.41 0.59h10.667c0.53 0 1.039-0.211 1.414-0.586s0.586-0.884 0.586-1.414v-3c0-0.088-0.035-0.173-0.098-0.236s-0.147-0.098-0.236-0.098h-5.64zM31.36 24.253c0.088 0 0.173-0.035 0.236-0.098s0.098-0.147 0.098-0.236v-3c0-0.53-0.211-1.039-0.586-1.414s-0.884-0.586-1.414-0.586h-0.36c-0.078-0.002-0.152-0.031-0.21-0.082s-0.097-0.121-0.11-0.198c-0.022-0.111-0.058-0.218-0.107-0.32l-0.667-1.333c-0.258-0.63-0.704-1.166-1.276-1.536s-1.244-0.555-1.924-0.531h-1.333c-0.679-0.025-1.349 0.16-1.92 0.53s-1.013 0.906-1.267 1.537l-0.667 1.333c-0.049 0.102-0.085 0.209-0.107 0.32-0.012 0.077-0.051 0.147-0.11 0.198s-0.133 0.080-0.21 0.082h-0.387c-0.53 0-1.039 0.211-1.414 0.586s-0.586 0.884-0.586 1.414v3c0 0.088 0.035 0.173 0.098 0.236s0.147 0.098 0.236 0.098h13.987zM22.893 18.187c0.293-0.6 0.44-0.6 0.8-0.6h1.333c0.36 0 0.52 0 0.813 0.6l0.133 0.253c0.026 0.049 0.039 0.104 0.039 0.16s-0.014 0.111-0.039 0.16c-0.028 0.049-0.069 0.090-0.118 0.118s-0.105 0.043-0.162 0.042h-2.627c-0.058-0.001-0.115-0.016-0.166-0.044s-0.095-0.068-0.127-0.116c-0.026-0.049-0.039-0.104-0.039-0.16s0.013-0.111 0.039-0.16l0.12-0.253zM9.72 11.533c-0.050-0.030-0.091-0.072-0.12-0.122s-0.044-0.107-0.044-0.165 0.015-0.115 0.044-0.165c0.029-0.050 0.070-0.092 0.12-0.122 0.807-0.495 1.47-1.193 1.923-2.024s0.682-1.766 0.662-2.713c-0.020-0.947-0.287-1.872-0.775-2.683s-1.18-1.481-2.006-1.942c-0.827-0.461-1.76-0.698-2.707-0.688s-1.874 0.269-2.69 0.749c-0.816 0.48-1.492 1.165-1.961 1.988s-0.715 1.753-0.713 2.7c-0.006 0.894 0.213 1.776 0.637 2.563s1.039 1.456 1.789 1.943c0.044 0.037 0.078 0.085 0.099 0.138s0.028 0.111 0.021 0.168c-0.002 0.059-0.021 0.117-0.054 0.166s-0.079 0.089-0.133 0.114c-1.055 0.526-1.943 1.337-2.562 2.341s-0.947 2.16-0.944 3.339v3.8c0.012 0.155 0.078 0.302 0.187 0.413 0.063 0.064 0.137 0.114 0.22 0.149s0.171 0.052 0.26 0.051h1.933c0.082-0.001 0.161 0.029 0.223 0.083s0.101 0.129 0.111 0.21l0.867 8.6c0.014 0.166 0.090 0.321 0.214 0.433s0.286 0.172 0.453 0.168h3.787c0.167 0.004 0.329-0.056 0.453-0.168s0.201-0.266 0.214-0.433l0.867-8.6c0.010-0.081 0.049-0.156 0.111-0.21s0.141-0.084 0.223-0.083h1.933c0.089 0 0.178-0.017 0.26-0.051s0.157-0.085 0.22-0.149c0.121-0.125 0.188-0.293 0.187-0.467v-3.747c-0.002-1.142-0.309-2.262-0.891-3.245s-1.416-1.791-2.416-2.342zM7.667 16c0 0.265-0.105 0.52-0.293 0.707s-0.442 0.293-0.707 0.293-0.52-0.105-0.707-0.293c-0.188-0.188-0.293-0.442-0.293-0.707v-2.213c0-0.265 0.105-0.52 0.293-0.707s0.442-0.293 0.707-0.293c0.265 0 0.52 0.105 0.707 0.293s0.293 0.442 0.293 0.707v2.213zM4.227 5.547c0.013-0.049 0.038-0.095 0.073-0.132s0.079-0.065 0.127-0.081c0.046-0.022 0.096-0.034 0.147-0.034s0.101 0.012 0.147 0.034c1.063 0.637 2.28 0.974 3.52 0.973 0.42-0.003 0.839-0.038 1.253-0.107 0.015-0.007 0.030-0.011 0.047-0.011s0.032 0.004 0.047 0.011c0.009 0.031 0.009 0.063 0 0.093 0.026 0.379-0.026 0.76-0.153 1.119s-0.327 0.687-0.586 0.965c-0.259 0.278-0.573 0.5-0.922 0.652s-0.725 0.23-1.106 0.23c-0.38 0-0.757-0.078-1.106-0.23s-0.663-0.373-0.922-0.652c-0.26-0.278-0.459-0.607-0.586-0.965s-0.179-0.739-0.153-1.119c0.022-0.256 0.080-0.507 0.173-0.747z"/></symbol><symbol id="icon-search-employees" viewBox="0 0 32 32"><path fill="#be9df6" style="fill: var(--color1, #be9df6)" d="M27.627 17.173c0.004-0.050-0.003-0.1-0.022-0.146s-0.048-0.088-0.085-0.121l-0.853-0.907c-0.056-0.036-0.12-0.055-0.187-0.055s-0.131 0.019-0.187 0.055c-1.139 0.479-2.364 0.724-3.6 0.72-0.988 0.004-1.97-0.154-2.907-0.467-0.080-0.027-0.167-0.022-0.243 0.012s-0.137 0.097-0.17 0.174c-0.348 0.784-0.796 1.519-1.333 2.187-0.020 0.046-0.030 0.096-0.030 0.147s0.010 0.1 0.030 0.147c0.091 0.327 0.202 0.647 0.333 0.96 0.037 0.080 0.104 0.142 0.187 0.173 3.253 1.2 7.48 3.187 7.48 9.333v2c0.005 0.098 0.005 0.196 0 0.293-0.007 0.047-0.003 0.096 0.011 0.142s0.037 0.089 0.069 0.125c0.067 0.068 0.158 0.106 0.253 0.107h4.96c0.177 0 0.346-0.070 0.471-0.195s0.195-0.295 0.195-0.471v-1.133c0-4.133-2.88-5.16-5.427-6.067l-0.653-0.24c-0.083-0.031-0.15-0.093-0.187-0.173-0.041-0.085-0.072-0.175-0.093-0.267-0.119-0.545-0.119-1.109 0-1.653 1.203-1.271 1.908-2.932 1.987-4.68z"/><path fill="#be9df6" style="fill: var(--color1, #be9df6)" d="M13.333 7.333c0-0.931 0.139-1.857 0.413-2.747 0.034-0.086 0.034-0.181 0-0.267-0.054-0.079-0.134-0.135-0.227-0.16-0.499-0.109-1.009-0.163-1.52-0.16-3.16 0-6.333 2.080-6.333 6.667 0 5.547 2.253 6.88 2.52 7.44 0.267 0.824 0.295 1.707 0.080 2.547-0.093 0.347-0.227 0.493-0.32 0.533l-1.013 0.36c-3.253 1.2-6.933 2.453-6.933 7.787v2c0 0.177 0.070 0.346 0.195 0.471s0.295 0.195 0.471 0.195h22.667c0.177 0 0.346-0.070 0.471-0.195s0.195-0.294 0.195-0.471v-2c0-5.267-3.693-6.573-6.96-7.747l-1.040-0.347c-0.093 0-0.227-0.187-0.32-0.533-0.233-0.833-0.233-1.714 0-2.547 0.74-0.78 1.34-1.682 1.773-2.667 0.027-0.073 0.030-0.152 0.009-0.226s-0.067-0.14-0.129-0.187c-1.247-0.868-2.263-2.028-2.96-3.378s-1.054-2.85-1.040-4.369z"/><path fill="#be9df6" style="fill: var(--color1, #be9df6)" d="M26.667 13.52c0.060-0.044 0.132-0.068 0.207-0.068s0.147 0.024 0.207 0.068l2.667 2.667c0.124 0.125 0.271 0.224 0.434 0.292s0.337 0.102 0.513 0.102c0.176 0 0.35-0.035 0.513-0.102s0.31-0.167 0.434-0.292c0.125-0.124 0.224-0.271 0.292-0.434s0.103-0.337 0.103-0.513-0.035-0.35-0.103-0.513c-0.068-0.162-0.167-0.31-0.292-0.434l-2.667-2.667c-0.044-0.060-0.068-0.132-0.068-0.207s0.024-0.147 0.068-0.207c0.959-1.526 1.323-3.353 1.021-5.13s-1.248-3.381-2.657-4.505c-1.41-1.124-3.184-1.69-4.984-1.589s-3.5 0.862-4.774 2.136c-1.275 1.275-2.035 2.974-2.136 4.774s0.464 3.574 1.589 4.983c1.124 1.409 2.728 2.355 4.505 2.657s3.604-0.062 5.13-1.021zM18 7.333c0-0.923 0.274-1.825 0.786-2.593s1.242-1.366 2.094-1.719c0.853-0.353 1.791-0.446 2.696-0.266s1.737 0.625 2.39 1.277c0.653 0.653 1.097 1.484 1.277 2.389s0.088 1.844-0.265 2.696-0.951 1.582-1.719 2.094c-0.767 0.513-1.67 0.787-2.593 0.787-1.238 0-2.425-0.492-3.3-1.367s-1.367-2.062-1.367-3.3z"/></symbol><symbol id="icon-remix" viewBox="0 0 32 32"><path fill="#be9df6" style="fill: var(--color1, #be9df6)" d="M17.008 1.276c-0.133-0.133-0.29-0.238-0.463-0.31s-0.359-0.109-0.547-0.109-0.373 0.037-0.547 0.109c-0.173 0.072-0.331 0.177-0.463 0.31l-3.513 3.518-3.326-1.662c-0.218-0.109-0.46-0.161-0.703-0.15s-0.48 0.084-0.687 0.212c-0.207 0.128-0.378 0.307-0.497 0.52s-0.181 0.452-0.181 0.696v5.223c0 1.961 1.591 3.552 3.552 3.552h12.734c1.961 0 3.552-1.591 3.552-3.552v-5.221c0-0.244-0.061-0.484-0.18-0.697s-0.29-0.392-0.497-0.521c-0.207-0.128-0.444-0.201-0.688-0.212s-0.486 0.041-0.704 0.15l-3.323 1.664-3.518-3.52zM5.319 13.618c0.731 0.297 1.079 1.134 0.777 1.863-0.677 1.66-1.245 3.363-1.701 5.097-0.45 1.728-0.695 3.223-0.681 4.188 0.037 2.293 1.202 3.291 2.149 3.483 0.181-0.137 0.411-0.345 0.704-0.649 0.306-0.32 0.608-0.663 0.937-1.040l0.503-0.574c0.507-0.569 1.086-1.189 1.696-1.669 0.587-0.462 1.406-0.958 2.377-0.958h7.84c0.971 0 1.79 0.496 2.377 0.958 0.61 0.48 1.189 1.099 1.696 1.669l0.503 0.572c0.329 0.377 0.631 0.722 0.937 1.042 0.293 0.304 0.526 0.512 0.704 0.649 0.946-0.192 2.112-1.189 2.149-3.483 0.014-0.967-0.231-2.459-0.681-4.185-0.456-1.734-1.025-3.437-1.703-5.097-0.144-0.35-0.143-0.744 0.002-1.094s0.424-0.627 0.775-0.772c0.35-0.144 0.744-0.143 1.094 0.002s0.627 0.425 0.772 0.775c0.697 1.698 1.349 3.639 1.826 5.463 0.466 1.799 0.793 3.591 0.773 4.953-0.059 3.703-2.404 6.331-5.346 6.331-0.211 0.002-0.42-0.045-0.61-0.137-0.697-0.329-1.317-0.91-1.813-1.426-0.354-0.37-0.731-0.8-1.083-1.202l-0.432-0.491c-0.405-0.477-0.848-0.919-1.326-1.323-0.142-0.117-0.297-0.217-0.462-0.297-0.047-0.024-0.098-0.039-0.151-0.046h-7.84c-0.053 0.006-0.104 0.022-0.151 0.046-0.114 0.050-0.267 0.149-0.459 0.297-0.478 0.405-0.922 0.848-1.328 1.326l-0.432 0.489c-0.352 0.402-0.729 0.832-1.083 1.202-0.496 0.517-1.115 1.097-1.813 1.426-0.19 0.092-0.399 0.139-0.61 0.137-2.942 0-5.287-2.629-5.346-6.331-0.021-1.362 0.306-3.154 0.773-4.951 0.475-1.826 1.129-3.767 1.826-5.463 0.144-0.35 0.421-0.629 0.77-0.775s0.742-0.148 1.093-0.004zM6.857 18.857c0-0.909 0.361-1.781 1.004-2.424s1.515-1.004 2.424-1.004 1.781 0.361 2.424 1.004c0.643 0.643 1.004 1.515 1.004 2.424s-0.361 1.781-1.004 2.424c-0.643 0.643-1.515 1.004-2.424 1.004s-1.781-0.361-2.424-1.004c-0.643-0.643-1.004-1.515-1.004-2.424zM21.714 15.429c-0.909 0-1.781 0.361-2.424 1.004s-1.004 1.515-1.004 2.424 0.361 1.781 1.004 2.424c0.643 0.643 1.515 1.004 2.424 1.004s1.781-0.361 2.424-1.004c0.643-0.643 1.004-1.515 1.004-2.424s-0.361-1.781-1.004-2.424c-0.643-0.643-1.515-1.004-2.424-1.004z"/></symbol><symbol id="icon-scales" viewBox="0 0 32 32"><path fill="#be9df6" style="fill: var(--color1, #be9df6)" d="M16 4c-1.693 0-3.2 1.067-3.76 2.667h-8.24v2.667h2.6l-3.933 9.333c-0.627 2.667 1.333 4 4.667 4s5.413-1.333 4.667-4l-3.933-9.333h4.16c0.44 1.133 1.307 2 2.44 2.44v14.893h-12v2.667h26.667v-2.667h-12v-14.907c1.133-0.427 2-1.293 2.427-2.427h4.173l-3.933 9.333c-0.627 2.667 1.333 4 4.667 4s5.413-1.333 4.667-4l-3.933-9.333h2.6v-2.667h-8.227c-0.573-1.6-2.080-2.667-3.773-2.667zM16 6.667c0.354 0 0.693 0.14 0.943 0.391s0.39 0.589 0.39 0.943c0 0.354-0.14 0.693-0.39 0.943s-0.589 0.391-0.943 0.391c-0.354 0-0.693-0.14-0.943-0.391s-0.39-0.589-0.39-0.943 0.14-0.693 0.39-0.943c0.25-0.25 0.589-0.391 0.943-0.391zM7.333 13.667l2 5h-4l2-5zM24.667 13.667l2 5h-4l2-5z"/></symbol><symbol id="icon-youtube" viewBox="0 0 32 32"><path fill="#be9df6" style="fill: var(--color1, #be9df6)" d="M15.249 6.036c3.104-0.429 6.812-0.891 7.379-0.891h0.035c1.331 0.027 2.411 0.239 3.68 1.208 0.78 0.595 1.407 1.52 1.861 2.755 0.393 1.069 1.093 7.040 1.111 8.287l0.007 0.32v0.005c0.027 1.045 0.071 2.791-0.697 4.228-1.44 2.693-4.601 2.985-5.893 2.985h-0.155c-5.273 0-7.827 0.696-9.881 1.256h-0.004c-1.304 0.357-2.431 0.664-3.852 0.664-0.379 0-0.76-0.021-1.16-0.065-1.623-0.177-2.867-1.324-3.507-3.232-0.473-1.413-1.3-7.595-1.445-9.164-0.187-2.025-0.005-3.579 1.483-5.073 0.807-0.812 1.825-1.44 3.107-1.92 0.929-0.347 4.827-0.933 7.933-1.363zM12.623 11.812c-0.163 0.119-0.097 0.607-0.069 0.813l0.007 0.055 0.173 1.464c0.2 1.712 0.504 4.313 0.555 4.685l0.012 0.097 0.020 0.164c0.060 0.473 0.152 1.207 0.375 1.325 0.034 0.017 0.074 0.026 0.12 0.027 0.297 0 0.828-0.347 1.129-0.58l4.775-3.305c0.302-0.211 0.606-0.419 0.911-0.627l0.016-0.009 0.1-0.063c0.208-0.125 0.463-0.284 0.459-0.62-0.008-0.355-0.293-0.479-0.504-0.568-0.046-0.018-0.091-0.039-0.135-0.063-1.464-0.749-6.173-2.417-7.111-2.72l-0.013-0.005c-0.192-0.071-0.393-0.113-0.597-0.127-0.078-0.003-0.155 0.016-0.221 0.056z"/></symbol><symbol id="icon-devbox" viewBox="0 0 32 32"><path fill="#be9df6" style="fill: var(--color1, #be9df6)" d="M26.061 10.098l-2.041-2.093-3.201 2.868 5.168 5.316-5.169 5.317c0.733 0.665 1.455 1.32 2.187 1.981l1.019 0.925 7.977-8.225-5.939-6.089zM3.989 12.096l-3.989 4.091c2.68 2.764 5.324 5.487 7.979 8.223l0.68-0.619 2.524-2.287-5.169-5.317 5.168-5.313c-0.579-0.52-1.147-1.029-1.717-1.539l-1.485-1.335-3.989 4.096zM20.769 4.046l-5.26 24.755-0.261-0.052-4.039-0.793 5.261-24.755 4.299 0.845z"/></symbol><symbol id="icon-circle" viewBox="0 0 32 32"><path fill="#be9df6" style="fill: var(--color1, #be9df6)" d="M24.828 21.445c0.004 1.624-0.342 3.231-1.014 4.709s-1.655 2.795-2.882 3.86c-0.804 0.707-0.253 2.029 0.817 1.923 0.716-0.070 1.424-0.203 2.116-0.4 1.858-0.524 3.547-1.524 4.9-2.9s2.324-3.083 2.816-4.949c0.468-1.695 0.538-3.475 0.204-5.201s-1.062-3.352-2.128-4.75c-1.066-1.398-2.441-2.531-4.017-3.31s-3.311-1.183-5.069-1.181c-0.466-0-0.931 0.026-1.393 0.080-1.059 0.133-1.327 1.548-0.387 2.056 3.601 1.936 6.040 5.713 6.040 10.064h-0.003zM10.541 24.796c-1.628 0.005-3.238-0.339-4.721-1.009s-2.806-1.65-3.879-2.875c-0.709-0.8-2.036-0.253-1.928 0.813 0.070 0.714 0.204 1.42 0.4 2.109 1.059 3.764 4.085 6.701 7.876 7.688 7.636 1.989 14.493-3.697 14.493-10.972 0-0.467-0.027-0.933-0.080-1.387-0.133-1.056-1.553-1.323-2.063-0.387-0.983 1.821-2.441 3.342-4.219 4.402s-3.81 1.618-5.879 1.617zM7.176 10.555c-0.004-1.625 0.342-3.231 1.015-4.71s1.656-2.795 2.884-3.86c0.804-0.708 0.253-2.029-0.817-1.923-0.72 0.071-1.432 0.2-2.131 0.387-1.856 0.527-3.543 1.527-4.896 2.904s-2.323 3.081-2.818 4.946c-0.468 1.695-0.538 3.475-0.204 5.201s1.062 3.352 2.128 4.75 2.441 2.531 4.017 3.31c1.576 0.779 3.311 1.183 5.070 1.181 0.469 0 0.939-0.027 1.393-0.080 1.059-0.133 1.327-1.549 0.387-2.056-1.821-0.972-3.344-2.42-4.405-4.19s-1.623-3.796-1.623-5.86zM21.469 7.204c1.628-0.005 3.238 0.339 4.721 1.009s2.806 1.65 3.879 2.875c0.707 0.8 2.035 0.253 1.927-0.813-0.070-0.714-0.204-1.421-0.4-2.111-1.060-3.764-4.087-6.7-7.879-7.688-7.623-2.003-14.48 3.684-14.48 10.959 0 0.467 0.027 0.933 0.080 1.388 0.133 1.055 1.557 1.321 2.065 0.387 0.982-1.818 2.438-3.337 4.213-4.394s3.804-1.614 5.871-1.61l0.003-0.001z"/></symbol><symbol id="icon-diamonds" viewBox="0 0 32 32"><path fill="#be9df6" style="fill: var(--color1, #be9df6)" d="M15.293 13.708c0.093 0.093 0.203 0.167 0.325 0.217s0.251 0.076 0.383 0.076 0.262-0.026 0.383-0.076c0.121-0.050 0.232-0.124 0.325-0.217l5-5c0.093-0.093 0.167-0.203 0.217-0.325s0.076-0.252 0.076-0.383-0.026-0.262-0.076-0.383c-0.050-0.121-0.124-0.232-0.217-0.325l-5-5c-0.093-0.093-0.203-0.167-0.325-0.217s-0.251-0.076-0.383-0.076-0.262 0.026-0.383 0.076c-0.121 0.050-0.232 0.124-0.325 0.217l-5 5c-0.093 0.093-0.167 0.203-0.217 0.325s-0.076 0.252-0.076 0.383c0 0.131 0.026 0.262 0.076 0.383s0.124 0.232 0.217 0.325l5 5zM16 4.414l3.586 3.586-3.586 3.586-3.586-3.586 3.586-3.586zM16.708 18.289c-0.093-0.093-0.203-0.167-0.325-0.217s-0.251-0.076-0.383-0.076-0.262 0.026-0.383 0.076c-0.121 0.050-0.232 0.124-0.325 0.217l-5 5c-0.093 0.093-0.167 0.203-0.217 0.325s-0.076 0.251-0.076 0.383 0.026 0.261 0.076 0.383c0.050 0.121 0.124 0.232 0.217 0.325l5 5c0.093 0.093 0.203 0.167 0.325 0.217s0.251 0.076 0.383 0.076 0.262-0.026 0.383-0.076c0.121-0.050 0.232-0.124 0.325-0.217l5-5c0.093-0.093 0.167-0.203 0.217-0.325s0.076-0.251 0.076-0.383-0.026-0.262-0.076-0.383c-0.050-0.121-0.124-0.232-0.217-0.325l-5-5zM16 27.586l-3.586-3.586 3.586-3.586 3.586 3.586-3.586 3.586zM29.708 15.293l-5-5c-0.093-0.093-0.203-0.167-0.325-0.217s-0.251-0.076-0.383-0.076-0.262 0.026-0.383 0.076c-0.121 0.050-0.232 0.124-0.325 0.217l-5 5c-0.093 0.093-0.167 0.203-0.217 0.325s-0.076 0.251-0.076 0.383 0.026 0.262 0.076 0.383c0.050 0.121 0.124 0.232 0.217 0.325l5 5c0.093 0.093 0.203 0.167 0.325 0.217s0.251 0.076 0.383 0.076 0.262-0.026 0.383-0.076c0.121-0.050 0.232-0.124 0.325-0.217l5-5c0.093-0.093 0.167-0.203 0.217-0.325s0.076-0.251 0.076-0.383-0.026-0.262-0.076-0.383c-0.050-0.121-0.124-0.232-0.217-0.325zM24 19.586l-3.586-3.586 3.586-3.586 3.586 3.586-3.586 3.586zM13.708 15.293l-5-5c-0.093-0.093-0.203-0.167-0.325-0.217s-0.252-0.076-0.383-0.076c-0.131 0-0.262 0.026-0.383 0.076s-0.232 0.124-0.325 0.217l-5 5c-0.093 0.093-0.167 0.203-0.217 0.325s-0.076 0.251-0.076 0.383 0.026 0.262 0.076 0.383c0.050 0.121 0.124 0.232 0.217 0.325l5 5c0.093 0.093 0.203 0.167 0.325 0.217s0.252 0.076 0.383 0.076 0.262-0.026 0.383-0.076c0.121-0.050 0.232-0.124 0.325-0.217l5-5c0.093-0.093 0.167-0.203 0.217-0.325s0.076-0.251 0.076-0.383-0.026-0.262-0.076-0.383c-0.050-0.121-0.124-0.232-0.217-0.325zM8 19.586l-3.586-3.586 3.586-3.586 3.586 3.586-3.586 3.586z"/></symbol><symbol id="icon-close" viewBox="0 0 32 32"><path fill="#be9df6" style="fill: var(--color1, #be9df6)" d="M7 4.172l9 9 9-9 2.828 2.828-9 9 9 9-2.828 2.828-9-9-9 9-2.828-2.828 9-9-9-9 2.828-2.828z"/></symbol><symbol id="icon-burger" viewBox="0 0 32 32"><path fill="#be9df6" style="fill: var(--color1, #be9df6)" d="M8.38 9h8.571c0.455 0 0.891 0.148 1.212 0.41s0.502 0.619 0.502 0.99c0 0.371-0.181 0.727-0.502 0.99s-0.758 0.41-1.212 0.41h-8.571c-0.455 0-0.891-0.148-1.212-0.41s-0.502-0.619-0.502-0.99 0.181-0.727 0.502-0.99c0.322-0.263 0.758-0.41 1.212-0.41zM20.38 20.2h8.571c0.455 0 0.891 0.148 1.212 0.41s0.502 0.619 0.502 0.99-0.181 0.727-0.502 0.99c-0.322 0.263-0.758 0.41-1.212 0.41h-8.571c-0.455 0-0.891-0.148-1.212-0.41s-0.502-0.619-0.502-0.99 0.181-0.727 0.502-0.99c0.322-0.263 0.758-0.41 1.212-0.41zM8.38 14.6h20.571c0.455 0 0.891 0.148 1.212 0.41s0.502 0.619 0.502 0.99-0.181 0.727-0.502 0.99c-0.322 0.263-0.758 0.41-1.212 0.41h-20.571c-0.455 0-0.891-0.148-1.212-0.41s-0.502-0.619-0.502-0.99 0.181-0.727 0.502-0.99c0.322-0.263 0.758-0.41 1.212-0.41z"/></symbol></defs></svg>